<svg preserveAspectRatio="xMidYMid meet" width="100%" height="100%" overflow="visible" style="display: block;" viewBox="0 0 74 74" fill="none" xmlns="http://www.w3.org/2000/svg">
<g id="Group 3">
<g id="Ellipse 2" filter="url(#filter0_d_0_45)">
<circle cx="35" cy="35" r="33" fill="var(--fill-0, #FFAE00)"/>
</g>
<g id="_&#235;&#160;&#136;&#236;&#157;&#180;&#236;&#150;&#180;_1" clip-path="url(#clip0_0_45)">
<path id="Vector" d="M34.6543 17C24.9003 17 17 24.9003 17 34.6543C17 44.4083 24.9003 52.3085 34.6543 52.3085C38.4155 52.3085 41.8778 51.1258 44.748 49.1145C45.105 48.8644 45.5282 48.709 45.9622 48.7505C49.1106 49.0509 50.9532 51.4217 51.7789 52.8529C51.926 53.1177 52.3233 53 52.3233 52.691V34.6396C52.3085 24.9003 44.4083 17 34.6543 17Z" fill="var(--fill-0, #F6FBFF)"/>
<g id="Group 1">
<circle id="Ellipse 3" cx="41.716" cy="34.5" r="1.51322" fill="var(--fill-0, #FFAE00)"/>
<circle id="Ellipse 4" cx="34.6543" cy="34.5" r="1.51322" fill="var(--fill-0, #FFAE00)"/>
<circle id="Ellipse 5" cx="27.5926" cy="34.5" r="1.51322" fill="var(--fill-0, #FFAE00)"/>
</g>
</g>
</g>
<defs>
<filter id="filter0_d_0_45" x="0" y="0" width="74" height="74" filterUnits="userSpaceOnUse" color-interpolation-filters="sRGB">
<feFlood flood-opacity="0" result="BackgroundImageFix"/>
<feColorMatrix in="SourceAlpha" type="matrix" values="0 0 0 0 0 0 0 0 0 0 0 0 0 0 0 0 0 0 127 0" result="hardAlpha"/>
<feOffset dx="2" dy="2"/>
<feGaussianBlur stdDeviation="2"/>
<feComposite in2="hardAlpha" operator="out"/>
<feColorMatrix type="matrix" values="0 0 0 0 0.18001 0 0 0 0 0 0 0 0 0 0.413837 0 0 0 0.24 0"/>
<feBlend mode="normal" in2="BackgroundImageFix" result="effect1_dropShadow_0_45"/>
<feBlend mode="normal" in="SourceGraphic" in2="effect1_dropShadow_0_45" result="shape"/>
</filter>
<clipPath id="clip0_0_45">
<rect width="35.3085" height="36" fill="white" transform="translate(17 17)"/>
</clipPath>
</defs>
</svg>
