<svg preserveAspectRatio="none" width="100%" height="100%" overflow="visible" style="display: block;" viewBox="0 0 18 18" fill="none" xmlns="http://www.w3.org/2000/svg">
<g id="icon / ionicons / outline / options-outline">
<g id="Vector">
<path fill-rule="evenodd" clip-rule="evenodd" d="M12.375 4.5C12.375 4.18934 12.6268 3.9375 12.9375 3.9375H15.75C16.0607 3.9375 16.3125 4.18934 16.3125 4.5C16.3125 4.81066 16.0607 5.0625 15.75 5.0625H12.9375C12.6268 5.0625 12.375 4.81066 12.375 4.5Z" fill="#FAFAFA"/>
<path fill-rule="evenodd" clip-rule="evenodd" d="M1.6875 4.5C1.6875 4.18934 1.93934 3.9375 2.25 3.9375H10.6875C10.9982 3.9375 11.25 4.18934 11.25 4.5C11.25 4.81066 10.9982 5.0625 10.6875 5.0625H2.25C1.93934 5.0625 1.6875 4.81066 1.6875 4.5Z" fill="#FAFAFA"/>
<path fill-rule="evenodd" clip-rule="evenodd" d="M12.375 13.5C12.375 13.1893 12.6268 12.9375 12.9375 12.9375H15.75C16.0607 12.9375 16.3125 13.1893 16.3125 13.5C16.3125 13.8107 16.0607 14.0625 15.75 14.0625H12.9375C12.6268 14.0625 12.375 13.8107 12.375 13.5Z" fill="#FAFAFA"/>
<path fill-rule="evenodd" clip-rule="evenodd" d="M1.6875 13.5C1.6875 13.1893 1.93934 12.9375 2.25 12.9375H10.6875C10.9982 12.9375 11.25 13.1893 11.25 13.5C11.25 13.8107 10.9982 14.0625 10.6875 14.0625H2.25C1.93934 14.0625 1.6875 13.8107 1.6875 13.5Z" fill="#FAFAFA"/>
<path fill-rule="evenodd" clip-rule="evenodd" d="M6.75 9C6.75 8.68934 7.00184 8.4375 7.3125 8.4375H15.75C16.0607 8.4375 16.3125 8.68934 16.3125 9C16.3125 9.31066 16.0607 9.5625 15.75 9.5625H7.3125C7.00184 9.5625 6.75 9.31066 6.75 9Z" fill="#FAFAFA"/>
<path fill-rule="evenodd" clip-rule="evenodd" d="M1.6875 9C1.6875 8.68934 1.93934 8.4375 2.25 8.4375H5.0625C5.37316 8.4375 5.625 8.68934 5.625 9C5.625 9.31066 5.37316 9.5625 5.0625 9.5625H2.25C1.93934 9.5625 1.6875 9.31066 1.6875 9Z" fill="#FAFAFA"/>
<path fill-rule="evenodd" clip-rule="evenodd" d="M11.8125 3.9375C11.5018 3.9375 11.25 4.18934 11.25 4.5C11.25 4.81066 11.5018 5.0625 11.8125 5.0625C12.1232 5.0625 12.375 4.81066 12.375 4.5C12.375 4.18934 12.1232 3.9375 11.8125 3.9375ZM10.125 4.5C10.125 3.56802 10.8805 2.8125 11.8125 2.8125C12.7445 2.8125 13.5 3.56802 13.5 4.5C13.5 5.43198 12.7445 6.1875 11.8125 6.1875C10.8805 6.1875 10.125 5.43198 10.125 4.5Z" fill="#FAFAFA"/>
<path fill-rule="evenodd" clip-rule="evenodd" d="M6.1875 8.4375C5.87684 8.4375 5.625 8.68934 5.625 9C5.625 9.31066 5.87684 9.5625 6.1875 9.5625C6.49816 9.5625 6.75 9.31066 6.75 9C6.75 8.68934 6.49816 8.4375 6.1875 8.4375ZM4.5 9C4.5 8.06802 5.25552 7.3125 6.1875 7.3125C7.11948 7.3125 7.875 8.06802 7.875 9C7.875 9.93198 7.11948 10.6875 6.1875 10.6875C5.25552 10.6875 4.5 9.93198 4.5 9Z" fill="#FAFAFA"/>
<path fill-rule="evenodd" clip-rule="evenodd" d="M11.8125 12.9375C11.5018 12.9375 11.25 13.1893 11.25 13.5C11.25 13.8107 11.5018 14.0625 11.8125 14.0625C12.1232 14.0625 12.375 13.8107 12.375 13.5C12.375 13.1893 12.1232 12.9375 11.8125 12.9375ZM10.125 13.5C10.125 12.568 10.8805 11.8125 11.8125 11.8125C12.7445 11.8125 13.5 12.568 13.5 13.5C13.5 14.432 12.7445 15.1875 11.8125 15.1875C10.8805 15.1875 10.125 14.432 10.125 13.5Z" fill="#FAFAFA"/>
</g>
</g>
</svg>
